<svg xmlns="http://www.w3.org/2000/svg" viewBox="0 0 672 347.1"><title>Nymark</title><path fill="#07f" d="M.1 69.9c-.2 5.7.2 123.6.8 155.2.1 5.9 5.5 10.5 12.4 10.5 9.7-.2 11.3-12.8 11.4-20.3.3-23.7.7-111.5.7-111.5A537.7 537.7 0 0 0 73.8 199c23.5 36.3 31.1 53.3 46 53.3h.3c20-.3 41.1-19.6 40.4-61-.9-61.5-22.2-118.3-66.6-178.7C85.6 1.4 85.3 2.2 82.8.7S72.6-.4 72.6 5.4s4.3 13.2 7.2 19.3c23.5 48.5 47.6 110.4 48.6 163.5a91 91 0 0 1-8.5 40.4l-.9 1.9-1.2-1.7c-8.1-11.7-68.7-115-83.9-163.1l-.3-1c-1-3.3-1.6-4.8-4.8-4.8a82.5 82.5 0 0 0-17.6 1.8C6.1 63 0 65.4.1 69.9zM647.1 232c-25.2-20.7-45-33.6-52.7-41.9 6.2-11.1 15.2-27.5 26-43.4 3.3-4.9 4.3-7.7 4.3-11.7s-3.9-5.8-6.2-4.9c-5.4 2.2-13.3 8.6-17.2 12.5-19.9 19.9-36.9 47.4-36.9 47.4v-11.8c-.6-33.3.5-34.3-2.3-123.9-.2-5.2-1.1-25.2-1.4-31-.9-14-6.7-18.9-13-18.8-7.8.1-6.4 6.3-7.1 27.2-.6 19.3-.8 161.6-.8 161.6s-4-26.9-9.7-41.1c-3.2-7.8-11.8-19.1-22.2-19.1-2.6 0-5.2 1.4-7.8 3.6-5.6 5.5-11.2 15.4-16 24-6.2 11.2-11.1 20.1-15.9 20.1s-9.9-8.2-16-18.5c-8.9-15.1-20.1-33.9-35.4-33.9-20.9 0-36.6 22.6-44.3 43.8l-1.1 3.1-1.1-3.1c-5.8-16-22.6-47.3-42.8-47.3-25.4 0-28 36.8-28.5 49.6-4-15.1-19.5-42.9-49.8-42.9-9.1 0-19.5 4-28.9 9.1-2.8-3.9-7.7-11.4-11.1-15.4-7.8-9.1-15.7-15.8-22.4-18.8s-10-2.8-10.7-1.7 1.5 6.7 5.1 13.2 6.2 11.3 9.7 19.2 6.3 14.6 9.3 23.1l.2.6-.4.5-3 4.6a151.8 151.8 0 0 0-17.2 36.7c-2.6 8.5-8.5 30.2-8.1 49.2.9 49.9 18.5 95.2 37 95.2h.2c8.8-.1 19.1-9.8 26.9-25.2 9.5-18.7 14.5-44.2 14-71.8 0-1.7-.1-3.4-.1-5a190.2 190.2 0 0 0-2.2-28.4c-.5-3.3-.8-5.3-.8-5.3-2.8-15.6-13.9-46.3-13.9-46.3a28.5 28.5 0 0 1 19.5-7.2c17.8 0 32 23.5 37.5 62.4 1.2 8.4 5.6 10.7 13.2 10.7s13.1-5.1 13.1-11.6-.9-20.5-1-29.5c-.1-3.8-.1-7.5-.2-10.9-.1-8.6 1.8-15.2 5.6-19a12.1 12.1 0 0 1 8.8-3.7c7 0 11.5 10.6 15.9 20.9 1.3 3 2.5 5.8 3.7 8.2 5.5 11.1 11.2 22.6 20.4 22.6h.2c10.9-.2 16.1-8.6 21.6-17.4 1.2-1.9 2.4-4.3 3.7-6.8 4.8-9.3 10.8-20.8 21.5-20.8 8.7 0 16.4 11.1 24.6 22.8s17.4 25 27.3 25 16.8-12.4 23.4-23.4c3.3-5.5 6.4-10.6 9.6-14s5.2-5.4 7.9-5.4c11.2 0 29.2 27.9 29.2 55.6 0 11.5 6.2 15.6 10.8 15.5 6.4-.1 10.5-.9 12.3-9.1 2.5-10.9 1.8-20.5 2.5-25.7 9.1 6.8 62.4 37 90.5 52 5.9 3.1 15.3 5.2 17 2.7 3.3-4.8-11-16.1-24.3-27zm-438.6 99.1s-14.2-21.3-14.2-76.5c0-19.4 4.8-49.2 15.6-64.7 0 0 4.8 20.3 6 27a256.5 256.5 0 0 1 4.2 35.1c2.4 48.7-11.6 79.1-11.6 79.1z"/></svg>